<?xml version="1.0" standalone="no"?>
<!DOCTYPE svg PUBLIC "-//W3C//DTD SVG 20010904//EN"
 "http://www.w3.org/TR/2001/REC-SVG-20010904/DTD/svg10.dtd">
<svg version="1.0" xmlns="http://www.w3.org/2000/svg"
 width="500.000000pt" height="500.000000pt" viewBox="0 0 500.000000 500.000000"
 preserveAspectRatio="xMidYMid meet">

<g transform="translate(0.000000,500.000000) scale(0.100000,-0.100000)"
fill="#000000" stroke="none">
<path d="M1221 4747 c-52 -18 -96 -37 -98 -43 -2 -6 68 -156 157 -333 88 -177
160 -327 160 -334 -1 -6 -14 -27 -29 -45 l-29 -34 -55 99 c-30 54 -72 132 -93
173 -24 47 -45 75 -54 74 -19 -1 -260 -181 -260 -193 0 -8 38 -56 90 -115 14
-15 37 -42 52 -60 24 -29 31 -31 87 -31 34 1 61 -1 61 -2 0 -2 -18 -14 -40
-28 -22 -14 -40 -31 -40 -39 0 -18 254 -353 265 -350 6 2 69 -19 140 -45 72
-26 131 -47 133 -46 2 2 -18 45 -45 96 -89 173 -86 165 -56 194 26 23 28 24
46 7 18 -16 18 -14 -2 25 -11 23 -21 45 -21 48 0 3 36 -13 80 -35 44 -22 82
-40 84 -40 3 0 -4 23 -16 50 -19 45 -24 50 -52 50 -103 0 -152 135 -71 198
l23 18 -58 145 c-31 79 -97 248 -145 374 -85 222 -100 256 -114 254 -3 0 -48
-15 -100 -32z"/>
<path d="M3618 4653 c-16 -20 -11 -7 -210 -518 -77 -198 -142 -365 -145 -372
-4 -10 83 -63 104 -63 15 0 445 864 439 881 -6 13 -56 39 -166 87 -4 1 -13 -5
-22 -15z"/>
<path d="M3763 4215 c-12 -8 -54 -77 -94 -152 -230 -437 -326 -622 -319 -618
4 3 48 -10 96 -28 l89 -33 255 342 c140 188 259 354 265 369 13 36 1 44 -128
88 -145 49 -140 48 -164 32z"/>
<path d="M2460 3928 c-63 -33 -97 -80 -116 -163 -19 -84 -54 -199 -84 -277
-24 -60 -22 -95 6 -122 20 -21 33 -20 40 2 3 9 11 27 16 39 6 12 8 38 5 57 -5
34 6 50 16 24 3 -7 6 11 6 40 1 28 6 52 11 52 6 0 10 9 10 21 0 20 58 98 73
99 4 0 7 -9 7 -20 0 -19 7 -20 115 -20 98 0 115 2 115 16 0 11 10 6 35 -17 21
-20 35 -43 35 -57 0 -17 4 -23 15 -18 12 4 15 -5 15 -52 0 -39 3 -52 10 -42
16 26 22 3 11 -52 -6 -29 -13 -62 -16 -73 -4 -14 4 -30 24 -52 30 -33 53 -43
49 -21 -2 6 14 15 35 20 20 4 49 15 62 24 l25 17 -24 42 c-82 139 -152 282
-178 363 -22 70 -39 103 -67 132 -60 63 -169 79 -251 38z"/>
<path d="M2647 3432 c-12 -13 -17 -36 -17 -75 l0 -57 41 0 c30 0 38 3 32 13
-4 6 -14 40 -23 75 -15 61 -16 63 -33 44z"/>
<path d="M2451 3387 c-6 -29 -27 -84 -46 -122 -23 -45 -31 -71 -24 -75 12 -8
6 -53 -18 -140 -29 -103 -26 -104 -109 16 -41 59 -74 113 -74 120 0 17 58 64
80 64 10 0 20 7 24 15 7 20 4 19 -53 -10 -51 -25 -144 -121 -180 -185 l-21
-38 73 -52 c39 -29 147 -113 239 -187 92 -73 172 -133 179 -133 6 0 41 26 78
58 78 69 200 167 293 237 37 28 70 58 73 67 4 11 -17 50 -60 112 l-66 94 -49
-21 c-38 -17 -52 -29 -61 -54 -6 -18 -13 -33 -15 -33 -3 0 -64 41 -136 90 -86
59 -124 90 -110 90 20 0 22 5 22 59 0 83 -23 100 -39 28z"/>
<path d="M4246 1903 c-19 -134 -19 -138 8 -153 21 -10 34 -11 64 -2 53 16 77
45 77 94 0 54 -47 98 -104 98 -38 0 -39 -2 -45 -37z"/>
<path d="M665 1073 c35 -140 246 -166 320 -39 14 24 25 48 25 54 0 9 -49 12
-176 12 l-176 0 7 -27z"/>
</g>
</svg>
